#N canvas 709 670 511 458 10;
#X obj 76 285 osc~ 440;
#X obj 66 344 dac~;
#X obj 76 312 *~ 0.1;
#X obj 76 259 r \$0freq;
#X obj 202 200 metro 250;
#X obj 202 233 f;
#X obj 236 234 + 1;
#X obj 202 174 loadbang;
#X obj 202 263 s \$0output;
#X obj 356 215 loadbang;
#X obj 356 245 print "hello";
#X connect 0 0 2 0;
#X connect 2 0 1 0;
#X connect 2 0 1 1;
#X connect 3 0 0 0;
#X connect 4 0 5 0;
#X connect 5 0 6 0;
#X connect 5 0 8 0;
#X connect 6 0 5 1;
#X connect 7 0 4 0;
#X connect 9 0 10 0;
