#N canvas 789 320 450 300 10;
#X obj 174 151 *~;
#X obj 173 114 vline~;
#X obj 39 201 *~;
#X obj 174 181 *~;
#X obj 174 204 lop~ 1000;
#X obj 38 34 t a b;
#X obj 38 107 osc~;
#X obj 38 60 mtof;
#X obj 83 107 osc~;
#X obj 83 85 * 2;
#X obj 83 129 *~ 0.5;
#X msg 139 8 60;
#X msg 173 89 1 \, 0 500;
#X obj 39 234 *~ 0.3;
#X obj 40 272 dac~ 1;
#X obj 38 9 r \$0note;
#X connect 0 0 3 0;
#X connect 0 0 3 1;
#X connect 1 0 0 0;
#X connect 1 0 0 1;
#X connect 2 0 13 0;
#X connect 3 0 4 0;
#X connect 4 0 2 1;
#X connect 5 0 7 0;
#X connect 5 1 12 0;
#X connect 6 0 2 0;
#X connect 7 0 6 0;
#X connect 7 0 9 0;
#X connect 8 0 10 0;
#X connect 9 0 8 0;
#X connect 10 0 2 0;
#X connect 11 0 5 0;
#X connect 12 0 1 0;
#X connect 13 0 14 0;
#X connect 15 0 5 0;
