#N canvas 474 78 511 458 10;
#X obj 76 285 osc~ 440;
#X obj 66 344 dac~;
#X obj 76 312 *~ 0.1;
#X obj 76 259 r \$0freq;
#X obj 249 253 metro 250;
#X obj 249 286 f;
#X obj 283 287 + 1;
#X obj 249 227 loadbang;
#X obj 249 316 s \$0output;
#X obj 403 268 loadbang;
#X obj 403 298 print "hello";
#X obj 182 95 adc~;
#X obj 182 187 dac~;
#X obj 76 107 osc~ 440;
#X obj 76 148 *~;
#X obj 76 174 *~ 0.01;
#X obj 182 146 *~ 0.1;
#X connect 0 0 2 0;
#X connect 2 0 1 1;
#X connect 3 0 0 0;
#X connect 4 0 5 0;
#X connect 5 0 6 0;
#X connect 5 0 8 0;
#X connect 6 0 5 1;
#X connect 7 0 4 0;
#X connect 9 0 10 0;
#X connect 11 0 14 1;
#X connect 11 0 16 0;
#X connect 13 0 14 0;
#X connect 14 0 15 0;
#X connect 16 0 12 0;
