#N canvas 70 99 1084 396 10;
#X obj 86 126 osc~ 440;
#X obj 87 286 dac~ 1;
#X obj 35 125 noise~;
#X obj 87 241 *~ 0.1;
#X obj 155 156 vline~;
#X obj 87 212 *~;
#X obj 155 65 tgl 15 0 empty empty empty 17 7 0 10 -262144 -1 -1 0
1;
#X obj 155 40 loadbang;
#X obj 155 183 *~;
#X obj 155 87 metro 500;
#X obj 290 125 noise~;
#X obj 342 241 *~ 0.1;
#X obj 410 156 vline~;
#X obj 342 212 *~;
#X obj 410 65 tgl 15 0 empty empty empty 17 7 0 10 -262144 -1 -1 0
1;
#X obj 410 40 loadbang;
#X obj 410 183 *~;
#X obj 342 286 dac~ 2;
#X obj 341 126 osc~ 550;
#X obj 410 87 metro 300;
#X obj 538 127 noise~;
#X obj 590 243 *~ 0.1;
#X obj 658 158 vline~;
#X obj 590 214 *~;
#X obj 658 67 tgl 15 0 empty empty empty 17 7 0 10 -262144 -1 -1 0
1;
#X obj 658 42 loadbang;
#X obj 658 185 *~;
#X obj 590 288 dac~ 3;
#X obj 658 89 metro 350;
#X obj 784 128 noise~;
#X obj 836 244 *~ 0.1;
#X obj 904 159 vline~;
#X obj 836 215 *~;
#X obj 904 68 tgl 15 0 empty empty empty 17 7 0 10 -262144 -1 -1 0
1;
#X obj 904 43 loadbang;
#X obj 904 186 *~;
#X obj 836 289 dac~ 4;
#X obj 589 128 osc~ 660;
#X obj 835 129 osc~ 770;
#X obj 904 90 metro 400;
#X msg 658 128 1 0.1 \, 0 300 0.1;
#X msg 904 129 1 0.1 \, 0 200 0.1;
#X msg 155 126 1 0.1 \, 0 300 0.1;
#X msg 410 126 1 0.1 \, 0 250 0.1;
#X connect 0 0 5 0;
#X connect 2 0 5 0;
#X connect 3 0 1 0;
#X connect 4 0 8 0;
#X connect 4 0 8 1;
#X connect 5 0 3 0;
#X connect 6 0 9 0;
#X connect 7 0 6 0;
#X connect 8 0 5 1;
#X connect 9 0 42 0;
#X connect 10 0 13 0;
#X connect 11 0 17 0;
#X connect 12 0 16 0;
#X connect 12 0 16 1;
#X connect 13 0 11 0;
#X connect 14 0 19 0;
#X connect 15 0 14 0;
#X connect 16 0 13 1;
#X connect 18 0 13 0;
#X connect 19 0 43 0;
#X connect 20 0 23 0;
#X connect 21 0 27 0;
#X connect 22 0 26 0;
#X connect 22 0 26 1;
#X connect 23 0 21 0;
#X connect 24 0 28 0;
#X connect 25 0 24 0;
#X connect 26 0 23 1;
#X connect 28 0 40 0;
#X connect 29 0 32 0;
#X connect 30 0 36 0;
#X connect 31 0 35 0;
#X connect 31 0 35 1;
#X connect 32 0 30 0;
#X connect 33 0 39 0;
#X connect 34 0 33 0;
#X connect 35 0 32 1;
#X connect 37 0 23 0;
#X connect 38 0 32 0;
#X connect 39 0 41 0;
#X connect 40 0 22 0;
#X connect 41 0 31 0;
#X connect 42 0 4 0;
#X connect 43 0 12 0;
